PathFileType	4	(X/Y/Z)	/Users/itak/Documents/Research/Walk-IL/dataset/trc/00476_00167.trc
DataRate	CameraRate	NumFrames	NumMarkers	Units	OrigDataRate	OrigDataStartFrame	OrigNumFrames
100.000000	100.000000	4	53	mm	100.000000	210	560
Frame#	Time	RPSI			LPSI			L3			STRN			T10			C7			CLAV			RBAK			LBAK			LSHO			LUPA			LAEL			LAOL			LWTS			LWPS			LFRA			LIFD			LHPS			LHTS			RSHO			RUPA			RAEL			RAOL			RWTS			RWPS			RFRA			RIFD			RHTS			RHPS			RBHD			LFHD			RFHD			LBHD			LHIP			RHIP			RASI			LASI			LKNE			LTHI			LANK			LTIP			LTOE			LMT1			LMT5			LHEE			RKNE			RTHI			RANK			RTIP			RTOE			RMT1			RMT5			RHEE			
		X1	Y1	Z1	X2	Y2	Z2	X3	Y3	Z3	X4	Y4	Z4	X5	Y5	Z5	X6	Y6	Z6	X7	Y7	Z7	X8	Y8	Z8	X9	Y9	Z9	X10	Y10	Z10	X11	Y11	Z11	X12	Y12	Z12	X13	Y13	Z13	X14	Y14	Z14	X15	Y15	Z15	X16	Y16	Z16	X17	Y17	Z17	X18	Y18	Z18	X19	Y19	Z19	X20	Y20	Z20	X21	Y21	Z21	X22	Y22	Z22	X23	Y23	Z23	X24	Y24	Z24	X25	Y25	Z25	X26	Y26	Z26	X27	Y27	Z27	X28	Y28	Z28	X29	Y29	Z29	X30	Y30	Z30	X31	Y31	Z31	X32	Y32	Z32	X33	Y33	Z33	X34	Y34	Z34	X35	Y35	Z35	X36	Y36	Z36	X37	Y37	Z37	X38	Y38	Z38	X39	Y39	Z39	X40	Y40	Z40	X41	Y41	Z41	X42	Y42	Z42	X43	Y43	Z43	X44	Y44	Z44	X45	Y45	Z45	X46	Y46	Z46	X47	Y47	Z47	X48	Y48	Z48	X49	Y49	Z49	X50	Y50	Z50	X51	Y51	Z51	X52	Y52	Z52	X53	Y53	Z53	

211	2.1	-700.2802124023438	937.7597045898438	-69.28907012939453	-694.419677734375	930.2252197265625	-212.3015441894531	-676.9285888671875	1045.236938476562	-123.2081756591797	-384.2426452636719	1217.200073242188	-104.3593521118164	-676.6118774414062	1169.3037109375	-124.3308563232422	-589.3213500976562	1429.873046875	-93.1112060546875	-411.4928894042969	1332.855346679688	-101.1007690429688	-666.1126098632812	1308.581787109375	-12.14799499511719	-621.526123046875	1392.630004882812	-197.7111358642578	-510.3518981933594	1408.385375976562	-267.0234985351562	-519.4910278320312	1297.90869140625	-371.700927734375	-502.7248229980469	1083.372924804688	-414.9986877441406	-593.0299682617188	1070.257934570312	-367.5897216796875	-426.6395263671875	884.0516357421875	-351.669677734375	-458.4080810546875	868.6409301757812	-417.3374938964844	-476.9156494140625	996.3715209960938	-419.4209289550781	-415.7062072753906	724.8570556640625	-363.6299743652344	-448.9860534667969	792.4029541015625	-417.6288146972656	-407.8937377929688	799.0245971679688	-358.7249145507812	-536.4442138671875	1386.020263671875	66.14740753173828	-567.931640625	1327.867553710938	136.5321502685547	-613.153076171875	1049.543334960938	202.0785980224609	-654.6738891601562	1029.582885742188	152.1846313476562	-495.3099060058594	848.1473388671875	185.7674713134766	-570.2601318359375	832.0538330078125	229.480224609375	-609.7081909179688	991.01171875	214.3076019287109	-488.2719116210938	693.0811767578125	200.8633117675781	-476.6409912109375	752.8145751953125	204.8580017089844	-549.63134765625	746.6002807617188	233.380126953125	-454.6450500488281	1619.47265625	3.7922043800354	-353.1455688476562	1612.394653320312	-176.0908355712891	-326.8046875	1611.55322265625	-48.42794036865234	-504.9963073730469	1628.265014648438	-166.3921203613281	-550.1904907226562	825.4752197265625	-323.7257080078125	-569.6612548828125	843.2164306640625	72.73240661621094	-473.0197448730469	892.6106567382812	8.740481376647949	-458.3271789550781	872.6508178710938	-245.9905700683594	-486.5254516601562	418.346923828125	-317.9057312011719	-465.9798583984375	569.594482421875	-329.6897277832031	-881.9443359375	250.5471801757812	-309.7921447753906	-622.0675659179688	331.8174743652344	-331.6654052734375	-767.9588012695312	49.39501953125	-257.3594970703125	-799.9234008789062	113.0933380126953	-222.2050628662109	-812.748046875	119.2402954101562	-332.2590942382812	-891.4610595703125	288.2984619140625	-243.6184997558594	-433.1271057128906	469.0889892578125	33.07798004150391	-494.255615234375	719.6382446289062	79.29150390625	-487.0856323242188	42.1605110168457	37.55855178833008	-425.433837890625	321.9158630371094	40.28507995605469	-281.2877197265625	48.04413986206055	-40.23774719238281	-348.7014465332031	52.95058441162109	-67.26825714111328	-351.5360717773438	44.08444213867188	43.04191589355469	-558.5535888671875	37.08268356323242	4.296175479888916	
212	2.11	-691.6212158203125	939.5068969726562	-69.63682556152344	-684.2463989257812	931.6399536132812	-212.6103210449219	-668.1072387695312	1046.848388671875	-122.7356262207031	-375.447509765625	1219.184936523438	-103.7226181030273	-667.6366577148438	1171.075317382812	-123.4516525268555	-580.382080078125	1431.740966796875	-92.28903961181641	-402.6688842773438	1334.842407226562	-100.7384414672852	-657.052490234375	1310.702758789062	-10.87424182891846	-613	1394.279296875	-196.6886138916016	-502.2539672851562	1410.068969726562	-266.4577331542969	-511.6530151367188	1299.567993164062	-371.0718078613281	-493.9148254394531	1085.499145507812	-414.9442749023438	-583.7127075195312	1071.329345703125	-366.7823791503906	-414.4496459960938	887.7428588867188	-351.9135131835938	-446.643798828125	871.4498901367188	-417.1104736328125	-467.0108337402344	998.7938232421875	-419.3745727539062	-399.7723693847656	728.9915161132812	-363.7216796875	-435.5042419433594	795.5374755859375	-417.4192199707031	-393.7565612792969	803.337646484375	-359.155029296875	-526.9824829101562	1388.15673828125	66.80191802978516	-557.89306640625	1330.1591796875	137.5428161621094	-600.7719116210938	1052.225463867188	205.4026031494141	-642.49609375	1031.079223632812	156.1838684082031	-478.2946472167969	853.9302368164062	189.5571136474609	-552.4076538085938	836.186279296875	234.0927124023438	-595.883056640625	993.8766479492188	217.9833526611328	-466.2729187011719	699.4291381835938	206.822265625	-456.4903259277344	759.5419921875	209.9505157470703	-529.0965576171875	751.4618530273438	239.0995330810547	-444.7861938476562	1621.393310546875	3.62919545173645	-344.6036987304688	1614.029174804688	-176.9726715087891	-317.3468933105469	1613.39892578125	-49.45129013061523	-496.3783874511719	1629.930786132812	-166.1794586181641	-537.5751953125	827.601806640625	-322.6417541503906	-562.9492797851562	844.4780883789062	73.63562774658203	-465.22607421875	893.90576171875	11.09668254852295	-448.1287231445312	875.0205078125	-243.3646545410156	-463.4361572265625	422.2767028808594	-315.3519592285156	-446.7763671875	573.802734375	-328.2832641601562	-855.9912109375	246.9837646484375	-304.9248046875	-597.7169799804688	333.6753540039062	-328.3315124511719	-732.6471557617188	50.32351303100586	-255.9768981933594	-767.4307861328125	111.7135848999023	-219.5460662841797	-781.167236328125	119.0855560302734	-329.4640197753906	-866.5565185546875	283.3358764648438	-238.0810852050781	-430.7477416992188	468.8377075195312	34.2961540222168	-488.8125305175781	720.2011108398438	80.46730041503906	-487.1242980957031	42.05213928222656	37.60433197021484	-424.1316833496094	321.5643005371094	41.25878524780273	-281.3345947265625	48.06851577758789	-40.05334091186523	-348.6165161132812	53.22380447387695	-67.00323486328125	-351.5838623046875	43.96238327026367	43.26176071166992	-558.5907592773438	37.0841178894043	4.277340888977051	
213	2.12	-682.9677734375	941.2166137695312	-70.14004516601562	-674.1018676757812	933.0501098632812	-213.0503845214844	-659.2559814453125	1048.356811523438	-122.4066314697266	-366.7028198242188	1221.169555664062	-103.1500549316406	-658.7732543945312	1172.759033203125	-122.6986770629883	-571.546142578125	1433.523559570312	-91.62873840332031	-393.9469299316406	1336.815063476562	-100.4871673583984	-648.0740966796875	1312.726806640625	-9.758632659912109	-604.5690307617188	1395.837890625	-195.8005981445312	-494.2571411132812	1411.679077148438	-266.016845703125	-503.9436340332031	1301.156372070312	-370.5524291992188	-485.3535461425781	1087.55712890625	-414.9736328125	-574.5394287109375	1072.340209960938	-365.9053039550781	-402.4551391601562	891.3673706054688	-352.4461059570312	-435.19189453125	874.1953125	-417.0802612304688	-457.3815002441406	1001.15283203125	-419.473388671875	-384.1166687011719	733.1345825195312	-364.200439453125	-422.3620910644531	798.6572265625	-417.4765014648438	-379.8462829589844	807.62451171875	-359.9486083984375	-517.6734008789062	1390.279418945312	67.30499267578125	-548.0028076171875	1332.44921875	138.4100494384766	-588.3180541992188	1054.973022460938	208.6573638916016	-630.2742309570312	1032.66259765625	160.1628265380859	-461.4903869628906	859.7276000976562	193.1916046142578	-534.657958984375	840.507080078125	238.6802520751953	-582.0057983398438	996.8497314453125	221.6103515625	-444.7186584472656	705.9505615234375	212.5905303955078	-436.699462890625	766.3522338867188	214.8344268798828	-508.8114929199219	756.5748901367188	244.7698211669922	-434.9364013671875	1623.247192382812	3.269402503967285	-336.1724548339844	1615.5322265625	-178.0852508544922	-307.9496765136719	1615.127075195312	-50.72782516479492	-487.8558349609375	1631.507690429688	-166.1464996337891	-525.099609375	829.8121337890625	-321.6903076171875	-556.3350830078125	845.7071533203125	74.38986206054688	-457.515380859375	895.1455078125	13.37843608856201	-438.0542907714844	877.3319702148438	-240.6960906982422	-440.6553344726562	426.3493957519531	-312.7146911621094	-427.5968017578125	578.233154296875	-326.7435302734375	-829.365478515625	241.8614196777344	-300.0597229003906	-573.30029296875	335.1128845214844	-324.9130554199219	-696.3993530273438	50.76578521728516	-254.0336456298828	-734.0791015625	109.7167053222656	-216.5521545410156	-748.7488403320312	117.8897171020508	-326.3319396972656	-841.1384887695312	276.9600830078125	-232.6111602783203	-428.5408935546875	468.6070861816406	35.46598815917969	-483.5073852539062	720.7398071289062	81.55879974365234	-487.1642150878906	41.96163558959961	37.6348991394043	-422.935791015625	321.24853515625	42.20587158203125	-281.3774719238281	48.08697891235352	-39.85570907592773	-348.494384765625	53.52001571655273	-66.72275543212891	-351.6274719238281	43.83953094482422	43.46714401245117	-558.6159057617188	37.10344696044922	4.222158432006836	
214	2.13	-674.3093872070312	942.8761596679688	-70.79779815673828	-664.0134887695312	934.4111328125	-213.6162719726562	-650.3670654296875	1049.74169921875	-122.2115173339844	-358.0031433105469	1223.130493164062	-102.638801574707	-649.9920043945312	1174.331176757812	-122.0692367553711	-562.80419921875	1435.208862304688	-91.12490844726562	-385.3169860839844	1338.746459960938	-100.3353881835938	-639.1591796875	1314.634033203125	-8.808344841003418	-596.216552734375	1397.294677734375	-195.046875	-486.3246459960938	1413.201416015625	-265.6889038085938	-496.3179931640625	1302.66552734375	-370.135009765625	-476.9971313476562	1089.529052734375	-415.0823974609375	-565.4940795898438	1073.291137695312	-365.0003356933594	-390.6763000488281	894.892822265625	-353.2250366210938	-424.0370788574219	876.8574829101562	-417.2293395996094	-447.9925842285156	1003.434143066406	-419.7029724121094	-368.8436279296875	737.2305908203125	-365.0220947265625	-409.5801391601562	801.7232666015625	-417.7704772949219	-366.2272033691406	811.8340454101562	-361.0506896972656	-508.5113220214844	1392.382202148438	67.65946197509766	-538.2704467773438	1334.7373046875	139.1362915039062	-575.8157958984375	1057.770629882812	211.8278961181641	-618.0082397460938	1034.320922851562	164.0827026367188	-444.9159240722656	865.49462890625	196.6719818115234	-517.0595703125	844.9708251953125	243.2050018310547	-568.110595703125	999.906494140625	225.1692199707031	-423.654296875	712.5703735351562	218.1367950439453	-417.3050537109375	773.1790771484375	219.4991455078125	-488.8397827148438	761.8784790039062	250.3386077880859	-425.099365234375	1625.026733398438	2.722204446792603	-327.8481750488281	1616.897094726562	-179.4107360839844	-298.6050415039062	1616.735473632812	-52.24932098388672	-479.4236450195312	1632.979614257812	-166.2807464599609	-512.8173217773438	832.0615844726562	-320.8725280761719	-549.7914428710938	846.9151611328125	74.98906707763672	-449.8809814453125	896.3155517578125	15.54403877258301	-428.11279296875	879.5513916015625	-238.0377349853516	-418.2272644042969	430.5123901367188	-310.0143737792969	-408.4925231933594	582.8472900390625	-325.0597839355469	-802.0418701171875	235.2630157470703	-295.1973266601562	-548.8565673828125	336.1256713867188	-321.4398803710938	-659.2923583984375	50.81406784057617	-251.6295166015625	-699.8853149414062	107.1987609863281	-213.2834320068359	-715.5377197265625	115.7680130004883	-322.9207458496094	-815.1634521484375	269.2359008789062	-227.2028350830078	-426.4759826660156	468.4036560058594	36.58174896240234	-478.3174438476562	721.2650756835938	82.55446624755859	-487.20361328125	41.88646697998047	37.65615844726562	-421.8087768554688	320.9700317382812	43.11783218383789	-281.4142150878906	48.10116195678711	-39.64365768432617	-348.3503723144531	53.82373809814453	-66.43008422851562	-351.6624755859375	43.71160125732422	43.66444778442383	-558.62353515625	37.13661956787109	4.12974214553833	
